# xmcd
#
# Track frame offsets:
#	150
#	22615
#	40970
#	57035
#	77125
#	89960
#	103755
#	117007
#	130882
#	148745
#	161500
#	176262
#	199705
#	219640
#	239062
#	258225
#	270535
#	285105
#	301100
#	318800
#
# Disc length: 4532 seconds
#
# Revision: 1
# Processed by: cddbd v1.5PL3 Copyright (c) Steve Scherf et al.
# Submitted via: CDex 1.50Beta5
#
DISCID=0e11b214
DTITLE=鮫島有美子 - ともしび
DYEAR=1900
DGENRE=
TTITLE0=鶴
TTITLE1=アムール河の波
TTITLE2=赤いサラファン
TTITLE3=泉のほとり
TTITLE4=バルカンの星の下に
TTITLE5=カチューシャ
TTITLE6=青いプラトーク
TTITLE7=トロイカ
TTITLE8=二つのギター
TTITLE9=黒い瞳の
TTITLE10=すずらん
TTITLE11=ともしび
TTITLE12=モスクワの夜は更けて
TTITLE13=百万本の薔薇
TTITLE14=長い道
TTITLE15=黒い瞳
TTITLE16=行商人
TTITLE17=ポーシュリカ・ポーレ
TTITLE18=とべよ鳩よ
TTITLE19=カリンカ
EXTD=
EXTT0=
EXTT1=
EXTT2=
EXTT3=
EXTT4=
EXTT5=
EXTT6=
EXTT7=
EXTT8=
EXTT9=
EXTT10=
EXTT11=
EXTT12=
EXTT13=
EXTT14=
EXTT15=
EXTT16=
EXTT17=
EXTT18=
EXTT19=
PLAYORDER=
